<?xml version="1.0" encoding="UTF-8" standalone="no"?>
<!DOCTYPE svg PUBLIC "-//W3C//DTD SVG 1.1//EN" "http://www.w3.org/Graphics/SVG/1.1/DTD/svg11.dtd">
<svg width="100%" height="100%" viewBox="0 0 24 24" version="1.1" xmlns="http://www.w3.org/2000/svg" xmlns:xlink="http://www.w3.org/1999/xlink" xml:space="preserve" xmlns:serif="http://www.serif.com/" style="fill-rule:evenodd;clip-rule:evenodd;stroke-linejoin:round;stroke-miterlimit:1.41421;">
    <rect x="0" y="0" width="24" height="24" style="fill:none;"/>
    <path d="M20,6L19,6L19,14C19,14.55 18.55,15 18,15L6,15L6,16C6,17.1 6.9,18 8,18L18,18L22,22L22,8C22,6.9 21.1,6 20,6ZM17,11L17,4C17,2.9 16.1,2 15,2L4,2C2.9,2 2,2.9 2,4L2,17L6,13L15,13C16.1,13 17,12.1 17,11Z" style="fill:url(#_Linear1);fill-rule:nonzero;"/>
    <defs>
        <linearGradient id="_Linear1" x1="0" y1="0" x2="1" y2="0" gradientUnits="userSpaceOnUse" gradientTransform="matrix(20,0,0,20,2,12)"><stop offset="0" style="stop-color:rgb(0,160,227);stop-opacity:1"/><stop offset="1" style="stop-color:rgb(0,66,99);stop-opacity:1"/></linearGradient>
    </defs>
</svg>
