<?xml version="1.0" encoding="UTF-8" standalone="no"?>
<!-- Generator: Adobe Illustrator 18.0.0, SVG Export Plug-In . SVG Version: 6.00 Build 0)  -->

<svg
   version="1.1"
   id="Capa_1"
   x="0px"
   y="0px"
   viewBox="0 0 24.000001 24.000001"
   xml:space="preserve"
   sodipodi:docname="twitter_single_col.svg"
   inkscape:version="1.1.2 (b8e25be833, 2022-02-05)"
   width="24"
   height="24"
   xmlns:inkscape="http://www.inkscape.org/namespaces/inkscape"
   xmlns:sodipodi="http://sodipodi.sourceforge.net/DTD/sodipodi-0.dtd"
   xmlns="http://www.w3.org/2000/svg"
   xmlns:svg="http://www.w3.org/2000/svg"><defs
   id="defs41" /><sodipodi:namedview
   id="namedview39"
   pagecolor="#ffffff"
   bordercolor="#666666"
   borderopacity="1.0"
   inkscape:pageshadow="2"
   inkscape:pageopacity="0.0"
   inkscape:pagecheckerboard="0"
   showgrid="false"
   inkscape:zoom="21.672582"
   inkscape:cx="16.541638"
   inkscape:cy="20.786633"
   inkscape:window-width="2560"
   inkscape:window-height="1361"
   inkscape:window-x="-9"
   inkscape:window-y="-9"
   inkscape:window-maximized="1"
   inkscape:current-layer="g6"
   fit-margin-top="0"
   fit-margin-left="0"
   fit-margin-right="0"
   fit-margin-bottom="0" />
<g
   id="g6"
   transform="translate(-24,-24)">
	<rect
   x="24.000654"
   y="23.954514"
   style="fill:#39b4e3;fill-opacity:1;stroke:none;stroke-width:0.0527022"
   width="24.018"
   height="24.018"
   id="rect2" />
	<path
   style="fill:#ffffff;stroke-width:0.0527022"
   d="m 27.182655,41.758455 c 1.59845,1.013781 3.494573,1.600462 5.527132,1.600462 5.710226,0 10.339106,-4.62941 10.339106,-10.339108 0,-0.142558 -0.0031,-0.284064 -0.0089,-0.42515 0.206539,-0.162532 1.483933,-1.186375 1.797038,-1.844574 0,0 -1.037336,0.431104 -2.05259,0.532662 -0.0021,0 -0.0047,4.74e-4 -0.0068,4.74e-4 0,0 0.0021,-9.48e-4 0.0058,-0.0037 0.09354,-0.06251 1.401403,-0.952802 1.578483,-2.013592 0,0 -0.733719,0.391631 -1.761043,0.734247 -0.17007,0.05648 -0.348098,0.112046 -0.531658,0.163535 -0.662203,-0.706734 -1.603463,-1.147853 -2.648282,-1.147853 -2.004107,0 -3.62807,1.623491 -3.62807,3.626066 0,0.282589 0.03251,0.557642 0.09404,0.821732 -0.280059,-0.01146 -4.544875,-0.2506 -7.446234,-3.764146 0,0 -1.734005,2.367223 1.033331,4.801429 0,0 -0.841231,-0.03351 -1.566992,-0.467151 0,0 -0.266567,2.867839 2.867367,3.601085 0,0 -0.61667,0.233576 -1.600461,0.06703 0,0 0.55016,2.317209 3.334517,2.533762 0,0 -2.201736,1.988977 -5.327185,1.522299 z"
   id="path4" />
</g>
<g
   id="g8"
   transform="translate(-24,-24)">
</g>
<g
   id="g10"
   transform="translate(-24,-24)">
</g>
<g
   id="g12"
   transform="translate(-24,-24)">
</g>
<g
   id="g14"
   transform="translate(-24,-24)">
</g>
<g
   id="g16"
   transform="translate(-24,-24)">
</g>
<g
   id="g18"
   transform="translate(-24,-24)">
</g>
<g
   id="g20"
   transform="translate(-24,-24)">
</g>
<g
   id="g22"
   transform="translate(-24,-24)">
</g>
<g
   id="g24"
   transform="translate(-24,-24)">
</g>
<g
   id="g26"
   transform="translate(-24,-24)">
</g>
<g
   id="g28"
   transform="translate(-24,-24)">
</g>
<g
   id="g30"
   transform="translate(-24,-24)">
</g>
<g
   id="g32"
   transform="translate(-24,-24)">
</g>
<g
   id="g34"
   transform="translate(-24,-24)">
</g>
<g
   id="g36"
   transform="translate(-24,-24)">
</g>
</svg>
