<?xml version="1.0" encoding="UTF-8" standalone="no"?>
<!DOCTYPE svg PUBLIC "-//W3C//DTD SVG 1.1//EN" "http://www.w3.org/Graphics/SVG/1.1/DTD/svg11.dtd">
<svg width="100%" height="100%" viewBox="0 0 24 24" version="1.1" xmlns="http://www.w3.org/2000/svg" xmlns:xlink="http://www.w3.org/1999/xlink" xml:space="preserve" xmlns:serif="http://www.serif.com/" style="fill-rule:evenodd;clip-rule:evenodd;stroke-linejoin:round;stroke-miterlimit:1.41421;">
    <rect x="0" y="0" width="24" height="24" style="fill:none;"/>
    <path d="M11.5,2C6.81,2 3,5.81 3,10.5C3,15.19 6.81,19 11.5,19L12,19L12,22C16.86,19.66 20,15 20,10.5C20,5.81 16.19,2 11.5,2ZM12.5,16.5L10.5,16.5L10.5,14.5L12.5,14.5L12.5,16.5ZM12.9,11.72C12.89,11.73 12.88,11.75 12.87,11.77C12.82,11.85 12.77,11.93 12.73,12.01C12.71,12.04 12.7,12.08 12.69,12.12C12.66,12.19 12.63,12.26 12.61,12.33C12.54,12.54 12.51,12.76 12.51,13.01L10.5,13.01C10.5,12.5 10.58,12.07 10.7,11.71C10.7,11.7 10.7,11.69 10.71,11.68C10.72,11.64 10.75,11.62 10.76,11.58C10.82,11.42 10.89,11.28 10.98,11.14C11.01,11.09 11.05,11.04 11.08,10.99C11.11,10.95 11.13,10.9 11.16,10.87L11.17,10.88C12.01,9.78 13.38,9.44 13.49,8.2C13.58,7.22 12.88,6.27 11.92,6.07C10.88,5.85 9.94,6.46 9.62,7.35C9.48,7.71 9.15,8 8.74,8L8.54,8C7.94,8 7.5,7.41 7.67,6.83C8.22,5.01 10.04,3.74 12.1,4.04C13.79,4.29 15.14,5.68 15.43,7.37C15.87,9.81 13.8,10.4 12.9,11.72Z" style="fill:url(#_Linear1);fill-rule:nonzero;"/>
    <defs>
        <linearGradient id="_Linear1" x1="0" y1="0" x2="1" y2="0" gradientUnits="userSpaceOnUse" gradientTransform="matrix(17,0,0,20,3,12)"><stop offset="0" style="stop-color:rgb(0,160,227);stop-opacity:1"/><stop offset="1" style="stop-color:rgb(0,66,99);stop-opacity:1"/></linearGradient>
    </defs>
</svg>
