<?xml version="1.0" encoding="UTF-8" standalone="no"?>
<!DOCTYPE svg PUBLIC "-//W3C//DTD SVG 1.1//EN" "http://www.w3.org/Graphics/SVG/1.1/DTD/svg11.dtd">
<svg width="100%" height="100%" viewBox="0 0 24 24" version="1.1" xmlns="http://www.w3.org/2000/svg" xmlns:xlink="http://www.w3.org/1999/xlink" xml:space="preserve" xmlns:serif="http://www.serif.com/" style="fill-rule:evenodd;clip-rule:evenodd;stroke-linejoin:round;stroke-miterlimit:1.41421;">
    <rect x="0" y="0" width="24" height="24" style="fill:none;"/>
    <path d="M14.4,6L14.16,4.8C14.07,4.34 13.66,4 13.18,4L6,4C5.45,4 5,4.45 5,5L5,20C5,20.55 5.45,21 6,21C6.55,21 7,20.55 7,20L7,14L12.6,14L12.84,15.2C12.93,15.67 13.34,16 13.82,16L19,16C19.55,16 20,15.55 20,15L20,7C20,6.45 19.55,6 19,6L14.4,6Z" style="fill:url(#_Linear1);fill-rule:nonzero;"/>
    <defs>
        <linearGradient id="_Linear1" x1="0" y1="0" x2="1" y2="0" gradientUnits="userSpaceOnUse" gradientTransform="matrix(15,0,0,17,5,12.5)"><stop offset="0" style="stop-color:rgb(0,160,227);stop-opacity:1"/><stop offset="1" style="stop-color:rgb(0,66,99);stop-opacity:1"/></linearGradient>
    </defs>
</svg>
